<svg xmlns="http://www.w3.org/2000/svg" viewBox="0 0 3200 1024" width="100%" height="100%">
  <g transform="translate(50, 0)">
    <path
      d="M226.72 910.05C192.45 915.09 161.82 908.82 135.23 891.31C112.81 876.54 99.82 861.03 91.04 838.5C87.83 830.26 87.53 828.61 87.52 819C87.5 809.68 87.77 808.02 89.95 804.23C91.37 801.74 94.39 798.67 97.18 796.88C101.2 794.3 103.27 793.72 110.16 793.25L118.36 792.69L133.59 781.09C164.32 757.69 207.25 723.4 217.63 713.96L219.76 712.02L216.34 700.76C211.64 685.3 209.66 673.49 209.57 660.5C209.47 644.64 212.16 640 221.48 640C223.7 640 225.28 639.44 225.62 638.54C225.93 637.74 224.82 631.78 223.16 625.29C219.27 610.1 216.24 590.58 214.8 571.33C213.49 553.89 214.57 535.6 217.94 518.17C219.46 510.32 219.8 505.64 219.35 498.67C218.68 488.09 220.4 476.36 224.64 462.68L227.37 453.89L225.72 445.2C223.91 435.69 224.31 431.86 228.1 422.35C230.6 416.08 230.59 416.07 219.58 406.42C208.76 396.94 181.35 367.79 167 350.5C118.47 292.01 87.69 232.31 75 172.09C69.39 145.44 67.75 131.22 67.65 108.5C67.55 82.27 68.78 74.02 73.53 69.27C77.85 64.95 81.65 64.92 86.72 69.19C88.8 70.95 104.22 85.93 121 102.47C137.77 119.02 167.25 147.83 186.5 166.5C230.56 209.24 260.83 238.87 296.77 274.49L325.04 302.5L329.27 300.06C341.48 293.01 355.13 286.73 364.26 283.94C378.98 279.45 381.81 278.09 388.1 272.5C398.89 262.91 413.51 256.25 431 252.96C434.58 252.29 438.03 251.24 438.68 250.62C439.56 249.79 439.62 247.33 438.9 241.02C435.23 208.76 425.79 201.05 391 201.9C389.36 201.94 387.81 201.97 386.35 202.01C365.62 202.52 362.24 202.61 359.68 201.21C359 200.84 358.37 200.36 357.5 199.76C351.12 195.4 348.61 190.86 348.16 182.85C347.83 176.98 348.16 175.2 350.41 170.6C359.46 152.1 386.1 150.65 453 165.01C495.43 174.12 512.22 176.33 538.5 176.32C560.29 176.3 573.22 174.53 587.85 169.55C600.49 165.25 615.08 156.99 620.38 151.13C622.18 149.14 622.17 149.08 619.86 148.61C618.56 148.34 613.22 147.9 608 147.63C597.41 147.07 589.33 144.7 582 140C575.96 136.13 565.12 124.83 555 115 Z"
      fill="#ff4444"
    />
  </g>

  <text
    x="850"
    y="512"
    text-anchor="start"
    dominant-baseline="central"
    fill="#ffffff"
    font-size="620"
    font-weight="900"
    font-family="system-ui, -apple-system, sans-serif"
    letter-spacing="-15"
  >Ani<tspan fill="#ff4444">Xen</tspan></text>
</svg>
